<svg fill="currentColor" viewBox="0 0 1024 1024" xmlns="http://www.w3.org/2000/svg"><path d="m1002.14 283.31c-68.2-71.32-140.81-138.51-210.1-208.75-9.98-8.41-20.01-12.66-33.15-15.18-12.37-2.38-444.12-.59-456.81-.25-29.58.8-50.31 17.71-49.8 39.54l-.68 96.71c-157.76 17.39-268.66 166.45-251.68 322.75 14.41 132.65 118.81 241.72 251.08 260.03l.63 163.4c3.38 18.78 19.33 34.68 38.75 35.94h694.29c24.18-3.95 37.01-20.94 38.81-44.67v-609.36c-1.5-21.68-7.89-26.11-21.33-40.17zm-897.54 54.29c97.51-130.18 300.71-116.2 384.28 20.35h-75.42c-3.61 0-8.1 8.67-7.99 12.29.33 10.8 9.87 10.32 17.04 13.81 12.35 6 17.9 12.6 16.42 27.2l-52.58 176.63-3.05-2.06-55.35-178.96c-1.65-8.31 2.05-18.13 9.71-22.2 5.07-2.7 14.38-2.62 17.99-7.3 5.1-6.62 2.08-14.49-4.8-18.3l-125.65-.47c-5.38 2.57-8.53 9.61-6.45 15.39 3.5 9.76 15.05 8.01 22.51 12.66 15.68 9.76 25.13 60.06 33.88 77.45l-48.41 126.71c-2.08-.17-2.3-2.15-2.97-3.6-24.35-53.17-35.73-123.76-58.4-178.85-.1-6.41-1.39-12.46 2.14-18.11 6.27-10.05 23.38-6.71 26.44-17.61 1.28-4.56-4.69-14.67-7.47-14.67h-94.46c1.77-7.56 7.96-14.16 12.6-20.35zm204.86 387.93c-162.55 10.57-287.88-135.9-250.72-294.65 1.89-8.09 10.76-39.43 17.56-42.6 10.43-.25 14.96 15.18 18.25 23.5 33.11 83.68 57.05 173.27 89.68 257.41 5.65 14.58 13.23 40.95 32.93 24.08l72.56-181.53 61.23 170.86c16.23 30.74 27.86 13.74 36.9-9.02 36.1-90.96 60.81-187.38 98.92-277.45 19.59-24.71 27.73 8.36 32.44 24.49 41.85 143.26-59.97 295.18-209.75 304.92zm454.73 59.31c-69.87 5.02-141.12.96-211.47 2.09-31.33-4.27-30.98-53.72-1.21-58.07l204.48-.22c28.91 1.94 34.21 46.12 8.2 56.2zm106.22-142.74-226.9-.16c-21.61-2.92-26.48-33.88-13.53-47.69 3.99-4.26 11.78-7.81 17.74-7.89l222.54.19c28.79 6.33 29.4 49.97.16 55.56zm1.31-143.68h-197.45c-30.68-4.18-30.76-53.17-1.24-58.1l197.23-.22c30.5 4.15 32.87 54.05 1.46 58.32zm-81.15-213.69v-131.8l133.27 131.8z"/></svg>
