<svg fill="currentColor" viewBox="0 0 1024 1024" xmlns="http://www.w3.org/2000/svg"><path d="m251.62 195.38.68-96.71c-.52-21.83 20.22-38.74 49.8-39.54 12.69-.34 444.44-2.13 456.81.25 13.14 2.52 23.17 6.77 33.15 15.18 69.29 70.24 141.9 137.43 210.1 208.75 13.45 14.06 19.83 18.49 21.34 40.17v609.35c-1.81 23.74-14.63 40.72-38.82 44.67h-694.3c-19.42-1.26-35.37-17.15-38.75-35.93l-.63-163.4c-132.27-18.32-236.67-127.38-251.08-260.04-16.98-156.3 93.92-305.36 251.7-322.75zm719.08 147.93h-210.15c-.66 0-7.6-3.35-9.06-4.12-11.98-6.36-15.9-17.66-17.86-30.47l.93-190.27-1.84-2.13h-425.44v79.08c129.09.59 245.6 108.49 270.5 232.55 34.17 170.22-92.11 341.73-266.85 350.31l-3.66 2.2v141.32h663.42v-578.47zm-46.87-58.58-133.27-131.8v131.8zm-434.95 73.22c-83.56-136.55-286.77-150.53-384.28-20.35-4.64 6.19-10.83 12.79-12.6 20.35h94.46c2.78 0 8.75 10.11 7.47 14.67-3.06 10.9-20.16 7.56-26.44 17.61-3.53 5.66-2.24 11.7-2.14 18.11 22.67 55.09 34.05 125.68 58.4 178.85.67 1.45.89 3.44 2.97 3.6l48.41-126.71c-8.75-17.39-18.2-67.69-33.88-77.45-7.47-4.65-19.01-2.9-22.51-12.66-2.07-5.78 1.07-12.82 6.45-15.39l125.65.47c6.88 3.81 9.9 11.68 4.8 18.3-3.61 4.68-12.91 4.6-17.99 7.3-7.66 4.07-11.35 13.89-9.71 22.2l55.35 178.96 3.05 2.06 52.58-176.63c1.47-14.6-4.08-21.2-16.42-27.2-7.17-3.49-16.71-3-17.04-13.81-.11-3.62 4.39-12.29 7.99-12.29h75.42zm-199.15 153.79-72.56 181.53c-19.69 16.87-27.27-9.5-32.93-24.08-32.62-84.14-56.57-173.73-89.68-257.41-3.29-8.32-7.83-23.74-18.25-23.5-6.8 3.17-15.67 34.51-17.56 42.6-37.16 158.75 88.16 305.22 250.72 294.65 149.78-9.74 251.6-161.66 209.75-304.92-4.71-16.12-12.85-49.19-32.44-24.49-38.11 90.07-62.83 186.49-98.92 277.45-9.03 22.76-20.67 39.76-36.9 9.02l-61.23-170.86z"/><path d="m629.98 594.24c3.99-4.26 11.78-7.81 17.74-7.89l222.54.19c28.79 6.33 29.4 49.97.16 55.56l-226.9-.16c-21.61-2.92-26.48-33.88-13.53-47.69z"/><path d="m551.5 728.85 204.48-.22c28.91 1.94 34.21 46.12 8.2 56.2-69.87 5.02-141.12.96-211.47 2.09-31.33-4.27-30.98-53.72-1.21-58.07z"/><path d="m673.02 440.31 197.23-.22c30.5 4.15 32.87 54.05 1.46 58.32h-197.45c-30.68-4.18-30.76-53.17-1.24-58.1z"/></svg>
